<?xml version="1.0" standalone="no"?>
<!DOCTYPE svg PUBLIC "-//W3C//DTD SVG 20010904//EN"
 "http://www.w3.org/TR/2001/REC-SVG-20010904/DTD/svg10.dtd">
<svg version="1.0" xmlns="http://www.w3.org/2000/svg"
 width="512.000000pt" height="512.000000pt" viewBox="0 0 512.000000 512.000000"
 preserveAspectRatio="xMidYMid meet">
<metadata>
Created by potrace 1.11, written by Peter Selinger 2001-2013
</metadata>
<g transform="translate(0.000000,512.000000) scale(0.100000,-0.100000)"
fill="#000000" stroke="none">
<path d="M2349 5046 c-2 -2 -35 -7 -74 -11 -96 -8 -132 -13 -191 -25 -28 -6
-62 -13 -76 -15 -190 -35 -503 -155 -703 -270 -255 -147 -540 -391 -696 -597
-13 -17 -29 -36 -34 -42 -20 -21 -133 -192 -177 -266 -113 -192 -211 -440
-263 -665 -20 -86 -21 -89 -30 -145 -4 -25 -9 -53 -10 -62 -21 -109 -27 -507
-11 -643 22 -186 83 -429 153 -609 36 -92 38 -95 86 -117 59 -28 65 -27 249
17 79 19 154 37 167 40 13 3 73 18 133 34 59 17 129 35 156 41 26 6 56 13 67
15 157 36 262 42 606 32 310 -9 419 28 419 143 0 53 -41 107 -180 239 -73 69
-154 154 -181 190 -164 218 -238 501 -199 766 13 91 12 97 -15 102 -83 12
-113 34 -214 152 -33 38 -32 50 4 50 13 0 35 4 48 9 14 6 44 13 67 16 23 3 51
10 62 14 19 7 18 8 -11 21 -31 12 -131 113 -131 131 0 5 -9 28 -19 52 -23 51
-41 125 -41 166 l0 31 36 -40 c78 -86 192 -136 286 -126 79 9 317 110 484 205
239 136 572 182 849 116 128 -30 281 -98 400 -178 63 -43 208 -183 263 -254
112 -146 197 -389 201 -574 1 -22 10 -31 49 -49 71 -34 149 -30 302 15 69 20
139 40 155 45 17 4 50 15 74 24 28 10 48 13 54 7 13 -13 12 -228 -2 -281 -17
-64 -73 -144 -154 -222 l-70 -68 29 -22 c99 -76 119 -127 67 -168 -34 -27 -73
-24 -193 15 -47 15 -107 30 -135 32 -61 6 -217 -30 -389 -90 -136 -48 -136
-47 -141 -164 -7 -140 30 -209 221 -413 160 -170 233 -286 274 -435 47 -167
55 -229 55 -417 0 -101 4 -154 10 -150 37 21 165 135 247 218 361 368 586 807
674 1314 36 211 40 574 8 770 -45 278 -119 510 -237 744 -50 101 -138 251
-169 291 -5 6 -32 42 -60 80 -28 39 -54 72 -57 75 -3 3 -35 39 -71 79 -279
320 -644 563 -1054 702 -106 36 -293 83 -391 98 -38 6 -88 13 -110 16 -47 7
-460 17 -466 11z"/>
<path d="M3035 3291 c-209 -97 -138 -413 93 -413 54 0 61 6 33 29 -27 23 -40
69 -30 109 22 79 122 102 185 43 l22 -20 4 36 c6 49 -22 129 -58 167 -40 42
-100 68 -159 68 -28 0 -68 -9 -90 -19z"/>
<path d="M1207 1134 c-1 -1 -47 -4 -102 -8 -213 -13 -475 -62 -475 -90 0 -6
27 -41 60 -77 l59 -66 58 20 c111 37 360 110 421 123 12 2 59 13 105 24 45 11
100 22 122 25 22 3 66 11 98 16 32 6 70 12 85 14 53 7 96 16 102 21 4 5 -527
3 -533 -2z"/>
<path d="M3057 892 c-4 -18 -27 -74 -52 -123 -171 -345 -474 -549 -870 -584
-74 -7 -97 -14 -52 -16 15 -1 30 -2 35 -3 12 -4 94 -17 137 -22 22 -3 127 -7
232 -10 214 -5 216 -5 303 65 182 147 273 338 284 601 3 95 -6 147 -17 92z"/>
</g>
</svg>
